<?xml version="1.0" encoding="utf-8"?>
<!-- Generator: Adobe Illustrator 25.2.1, SVG Export Plug-In . SVG Version: 6.00 Build 0)  -->
<svg version="1.1" id="Layer_1" xmlns="http://www.w3.org/2000/svg" xmlns:xlink="http://www.w3.org/1999/xlink" x="0px" y="0px"
	 viewBox="0 0 45 45" style="enable-background:new 0 0 45 45;" xml:space="preserve">
<style type="text/css">
	.st0{fill:#00DA5B;}
</style>
<g>
	<g>
		<path class="st0" d="M26.6,25.5c0,2.7,0,5.3,0,8c0,0.9,0.1,1.6,0.7,2.3c1,1.2,0.8,2.7-0.3,3.7c-1,0.9-2.6,0.9-3.6-0.1
			c-1.1-1.1-1.2-2.6-0.2-3.8c0.5-0.6,0.6-1.1,0.6-1.8c0-10.5,0-21.1,0-31.6c0-1.1,0.3-1.6,1.4-1.4c0.9,0.1,1.7,0,2.6,0
			c2.4,0.1,4.3,1.9,4.4,4.3c0,0.6-0.1,1.2,0.8,1.2c0.4,0,0.4,0.4,0.4,0.7c0,1.3,0,2.5,0,3.8c0,0.5-0.2,0.7-0.8,0.7
			c-1.3,0-2.5,0-3.8,0c-0.5,0-0.7-0.2-0.7-0.8c0-1.1,0-2.1,0-3.2c0-0.6-0.2-1.4,0.9-1.3c0.3,0,0.3-0.3,0.3-0.5
			c0.2-1.2-0.6-2-1.8-2.1c-0.6,0-1,0.1-0.9,0.8c0,2.5,0,5.1,0,7.6c0,0.9,0.5,0.9,1.1,0.9c3.9,0,7.8,0,11.7,0c3.1,0,4.9,1.8,4.9,4.9
			c0,3.2,0,6.5,0,9.7c0,2.9-1.9,4.8-4.8,4.8c-1.9,0-3.9,0-5.8,0c-1.5,0-1.5,0-1.5,1.6c0,1.9,0,3.9,0,5.8c0,2.8-1.9,4.7-4.6,4.7
			c-1,0-1.9,0-2.9,0c-0.7,0-1-0.1-1-0.9c0.1-2.5-0.2-2,2-2c3.6,0,3.6,0,3.6-3.6c0-4.9,0-9.9,0-14.8c0-0.6-0.1-1-0.5-1.5
			c-1-1.1-0.9-2.8,0.1-3.8c1-1,2.7-1,3.7,0c1,1,1.1,2.6,0.1,3.8c-0.3,0.3-0.5,0.6-0.5,1.1c0,2,0,4,0,6c0,0.6,0.2,0.9,0.9,0.9
			c2.1,0,4.2,0,6.3,0c1.4,0,2-0.7,2-2.1c0-3.2,0-6.5,0-9.7c0-1.4-0.6-2-2-2c-3.9,0-7.8,0-11.7,0c-0.9,0-1.1,0.4-1.1,1.2
			C26.6,19.6,26.6,22.6,26.6,25.5z M31.9,8.9c0.2-0.8-0.1-1.2-1-1.1c-0.7,0-1.2,0.1-1.1,1c0,0.7,0,1.3,1,1.2
			C31.5,9.9,32.1,9.9,31.9,8.9z M31.8,19.6c-0.1-0.6-0.4-1-1-1c-0.6,0-1,0.4-1,1c0,0.6,0.4,1,1,1C31.4,20.6,31.8,20.2,31.8,19.6z
			 M25.2,36.4c-0.5,0.1-0.9,0.3-0.9,1c0,0.6,0.3,1,0.9,1c0.6,0,0.9-0.4,0.9-1C26.1,36.7,25.7,36.5,25.2,36.4z"/>
		<path class="st0" d="M18.4,19.6c0-2.9,0-5.8,0-8.7c0-0.6-0.1-1.1-0.6-1.5c-1.1-1.1-1-2.8,0-3.8c1-0.9,2.6-1,3.6-0.1
			c1.2,1.1,1.4,2.6,0.3,3.7c-0.6,0.6-0.6,1.2-0.6,2c0,10.6,0,21.2,0,31.8c0,1-0.2,1.4-1.3,1.3c-0.8-0.1-1.7,0-2.5,0
			c-2.6,0-4.5-1.8-4.7-4.4c0-0.6,0-1.1-0.8-1.1c-0.4,0-0.4-0.4-0.4-0.7c0-1.3,0-2.5,0-3.8c0-0.5,0.2-0.8,0.7-0.7c1.3,0,2.5,0,3.8,0
			c0.5,0,0.7,0.2,0.7,0.7c0,1.3,0,2.5,0,3.8c0,0.3,0,0.7-0.4,0.7c-0.6,0-0.8,0.3-0.8,0.8c0,0.7,0.2,1.3,0.9,1.6
			c0.5,0.2,1.1,0.3,1.7,0.1c0.3-0.1,0.2-0.5,0.2-0.7c0-2.5,0-4.9,0-7.4c0-0.9-0.5-0.9-1.2-0.9c-3.9,0-7.8,0-11.6,0
			c-3,0-4.9-1.9-4.9-4.9c0-3.2,0-6.4,0-9.6c0-3,2.1-5.1,5-5c2,0.1,4,0,5.9,0c0.9,0,1.2-0.2,1.2-1.2c-0.1-2.1,0-4.1,0-6.2
			c0-2.9,1.9-4.7,4.8-4.8c0.9,0,1.8,0,2.7,0c0.7,0,1,0.3,0.9,0.9c0,0.3,0,0.6,0,0.9c0.1,0.8-0.3,1-1,1c-0.8,0-1.7,0-2.5,0
			c-1.4,0.1-2,0.7-2,2c0,5.6,0,11.1,0,16.7c0,0.6,0.3,1,0.7,1.5c0.7,0.9,0.8,2,0.2,3c-0.6,0.9-1.5,1.5-2.7,1.3c-1.2-0.2-2-1-2.3-2.2
			c-0.2-0.9,0.1-1.7,0.7-2.3c0.4-0.4,0.6-0.8,0.5-1.3c0-1.9,0-3.8,0-5.7c0-0.7-0.2-1-0.9-0.9c-2.1,0-4.3,0-6.4,0
			c-1.2,0-1.9,0.7-1.9,1.9c0,3.3,0,6.6,0,9.9c0,1.3,0.6,2,2,2c4,0,8,0,12,0c0.8,0,0.9-0.5,0.9-1.1C18.4,25.4,18.4,22.5,18.4,19.6
			C18.4,19.6,18.4,19.6,18.4,19.6z M14.1,37.2c0.9,0.2,1.1-0.2,1.2-1.1c0-1-0.4-1.1-1.2-1.1c-0.9,0-1.1,0.3-1.1,1.1
			C12.9,37,13.2,37.4,14.1,37.2z M15.2,25.3c-0.1-0.6-0.5-1-1-1c-0.5,0-0.9,0.3-1,0.9c0,0.6,0.3,1,0.9,1.1
			C14.8,26.3,15,25.9,15.2,25.3z M20.7,7.5c0-0.7-0.4-0.9-1-0.9c-0.7,0-1,0.4-1,1c0,0.5,0.4,0.9,1,0.9C20.4,8.5,20.7,8.1,20.7,7.5z"
			/>
	</g>
</g>
</svg>
