<?xml version="1.0" encoding="utf-8"?>
<!-- Generator: Adobe Illustrator 25.2.1, SVG Export Plug-In . SVG Version: 6.00 Build 0)  -->
<svg version="1.1" id="Kids_in_Vegetable_Costumes" xmlns="http://www.w3.org/2000/svg" xmlns:xlink="http://www.w3.org/1999/xlink"
	 x="0px" y="0px" viewBox="0 0 2000 2000" style="enable-background:new 0 0 2000 2000;" xml:space="preserve">
<style type="text/css">
	.st0{fill:none;stroke:#FFFFFF;stroke-miterlimit:10;}
	.st1{fill:#012F2F;}
	.st2{fill:#066481;}
	.st3{fill:#5D7228;}
	.st4{fill:#FEE110;}
	.st5{fill:#EFCE0A;}
	.st6{fill:#C4A805;}
	.st7{fill:#77943C;}
	.st8{fill:#F4B46D;}
	.st9{fill:#BC8D45;}
	.st10{fill:#993528;}
	.st11{fill:#4C260C;}
	.st12{fill:#BC7A2A;}
	.st13{fill:#F29870;}
	.st14{fill:#F47D67;}
	.st15{fill:#D3B609;}
	.st16{fill:#FFF933;}
	.st17{fill:#E64C3C;}
	.st18{fill:#40560A;}
	.st19{fill:#5C2182;}
	.st20{fill:#4A1970;}
	.st21{fill:#48196D;}
	.st22{fill:#55B523;}
	.st23{fill:#408915;}
	.st24{fill:#F7C78D;}
	.st25{fill:#E57225;}
	.st26{fill:#FFFFFF;}
	.st27{fill:#431666;}
	.st28{fill:#763AA5;}
	.st29{fill:#F6E396;}
	.st30{fill:#8AA526;}
	.st31{fill:#9DC03B;}
	.st32{fill:#EA321F;}
	.st33{fill:#B2160F;}
	.st34{fill:#51AA17;}
	.st35{fill:#34750B;}
	.st36{fill:#9B5D19;}
	.st37{fill:#663B0C;}
	.st38{fill:#E88D69;}
	.st39{fill:#F7453C;}
	.st40{fill:#3B97D3;}
	.st41{fill:#A6CC06;}
	.st42{fill:#AFD318;}
	.st43{fill:#89A521;}
	.st44{fill:#839E20;}
	.st45{fill:#BA874F;}
	.st46{fill:#D3EF2E;}
	.st47{fill:#A4B21F;}
	.st48{fill:#E3F95D;}
	.st49{fill:#CEEDEF;}
	.st50{fill:#2980BA;}
	.st51{fill:#48B715;}
	.st52{fill:#2B7006;}
	.st53{fill:#996220;}
	.st54{fill:#2E7A06;}
	.st55{fill:#55B21F;}
	.st56{fill:#1B3D05;}
	.st57{fill:#409B10;}
	.st58{fill:#081B36;}
	.st59{fill:#619E12;}
	.st60{fill:#4F7C0E;}
	.st61{fill:#6BB516;}
	.st62{fill:#F47421;}
	.st63{fill:#E05F17;}
	.st64{fill:#F2A222;}
	.st65{fill:#774811;}
	.st66{fill:#BF493A;}
	.st67{fill:#472809;}
	.st68{fill:#BC4D0F;}
	.st69{fill:#E06119;}
</style>
<g>
	<rect class="st0" width="2000" height="2000"/>
	<g>
		<g>
			<g>
				<path class="st1" d="M315,768.2c0,0-41.1,54.9-61,132.6c3.4,9.5,20.5,15.2,29.4,13.4c0,0,37.2-98.9,103.5-156.4
					C386.9,757.8,343.7,736.9,315,768.2z"/>
				<path class="st2" d="M253.9,900.8c0,0-25.6-8.5-37.2,7.1c-10,13.4,3.6,35.9,58.4,35.9c0,0,4.9-17.3,8.2-29.6
					C283.4,914.2,276.5,905.8,253.9,900.8z"/>
			</g>
			<g>
				<path class="st2" d="M492,937.3c0,0,27-0.2,33.1,18.2c5.3,15.9-19.6,31.3-66.6,16.2c0,0,0.7-17.9,1.3-30.7
					C459.8,941,470.1,932.8,492,937.3z"/>
				<path class="st1" d="M466.4,775.2c0,0,30.6,82,25.6,162.1c-8,6.6-24.9,7.3-32.1,3.7c0,0-4.9-105.6-50.3-180.7
					C409.6,760.3,448.7,736.6,466.4,775.2z"/>
			</g>
			<path class="st3" d="M363.3,311.5c0,0-26.4-118,38.5-230c0,0,33-15.4,42.9,23.1c0,0-73.7,75.9-63.8,208
				C380.9,312.6,374.3,320.3,363.3,311.5z"/>
			<path class="st4" d="M594,615.3c-3.6,29.1,0.7,60.2,0.9,88.5c0.1,28.2-4,53.6-24.7,71.2c-39.6,33.7-108.2-5.6-108.2-5.6
				c-63.1,44-129.1,10.3-129.1,10.3c-58.2,39.3-121.4-2.7-129.7-47.5c-0.7-3.7-1-7.5-0.9-11.2c1.5-48.4-22.1-127.3-32.3-177.2
				c-10.3-49.9-66.9-159-9.6-213.7c59-56.2,149-9.6,149-9.6c68.9-39.6,139.4-11.7,139.4-11.7c24.9-20.5,103.8-24,135.8-4.1
				c42.5,26.4,60.8,70.1,36.7,154.7C602.1,526.2,601.4,556.6,594,615.3z"/>
			<path class="st5" d="M570.2,775c-38.7,34.8-108.2-5.6-108.2-5.6c-63.1,44-129.1,10.3-129.1,10.3c-58.2,39.3-121.4-2.7-129.7-47.5
				c69.6,57,94.5-5.2,94.5-5.2c115.2,88.7,183.6-12.4,183.6-12.4c73.1,65.4,107-48.5,108.9-52.9C596.5,684.9,601.2,747.2,570.2,775z
				"/>
			<ellipse class="st6" cx="374.3" cy="547" rx="110" ry="82.5"/>
			<path class="st7" d="M369.9,289.5c0,0-22-3.3-49.5,13.2c-27.5,16.5-38.5,3.3-38.5,3.3s13.2,40.7,64.9,17.6c0,0-6.6,9.9-2.2,26.4
				c0,0,19.8-8.8,27.5-19.8c0,0,25.3,22,41.8,18.7c0,0,2.2-14.3-13.2-29.7c0,0,48.4,8.8,60.5-19.8c0,0-18.7,6.6-37.4-3.3
				C405.1,286.2,386.4,282.9,369.9,289.5z"/>
			<path class="st8" d="M485.3,524.1c0,133.8-221.8,132.7-221.8,0c0-55.1,49.7-99.8,110.9-99.8C435.6,424.3,485.3,469,485.3,524.1z"
				/>
			<path class="st9" d="M415.1,417.3c0,0-55-28.6-110.8,4.4c-46.9,27.8-44.7,68.2-46.9,93.2c0,0,41.8,0.7,62.3-22
				c0,0,0.7,8.1-4.4,14.7c0,0,33.7,0,51.3-22c0,0,1.5,8.1-2.2,13.9c0,0,27.9,5.1,47.7-17.6c0,0,6.6,14.7,0.7,21.3
				c0,0,19.1-2.9,28.6-19.1c0,0,8.8,27.1,35.2,25.7l20.5-1.5C497.2,508.2,502.3,406.3,415.1,417.3z"/>
			<path class="st8" d="M289.8,524.6c0,10.7-9.4,19.4-20.9,19.4c-11.5,0-20.9-8.7-20.9-19.4c0-10.7,9.4-19.4,20.9-19.4
				C280.4,505.1,289.8,513.9,289.8,524.6z"/>
			<path class="st8" d="M504.9,521.4c0,10.7-9.4,19.4-20.9,19.4c-11.5,0-20.9-8.7-20.9-19.4c0-10.7,9.4-19.4,20.9-19.4
				C495.5,502,504.9,510.7,504.9,521.4z"/>
			<path class="st10" d="M348,586.4c-3.8-4.9-6.3-11-6.6-17.7l62.1-3.5C405.2,595.9,366.7,610.3,348,586.4z"/>
			<path class="st11" d="M410.7,522.3c-0.3,6.3-4.8,11.2-9.9,10.9c-5.2-0.3-9.1-5.6-8.8-11.9c0.3-6.3,4.8-11.2,9.9-10.9
				C407.1,510.7,411,516,410.7,522.3z"/>
			<path class="st11" d="M355.1,523.4c0,6.3-4.1,11.5-9.3,11.5c-5.2,0-9.4-5.1-9.4-11.4c0-6.3,4.1-11.5,9.3-11.5
				C350.9,512,355.1,517.1,355.1,523.4z"/>
			<path class="st12" d="M382.4,535.4c-6.4-5.5-13.6-8.9-18.5-2c-0.6,1-0.9,1.2-1.4,2.8c-1.5,6.1,5.7,13.5,17.9,10.5
				c-11.4,7.2-24-1.9-21.6-11.4c2.6-9.3,14-13.4,22.2-1.9C382,534.6,382.4,535.4,382.4,535.4z"/>
			<path class="st13" d="M443.3,540.3c0.9,5-8.2,10.8-20.4,13c-12.2,2.2-22.7-0.1-23.6-5.1c-0.9-5,8.2-10.8,20.4-13
				C431.8,533,442.4,535.3,443.3,540.3z"/>
			<path class="st13" d="M341.2,554c-0.6,5-11,8-23.3,6.6c-12.3-1.4-21.8-6.6-21.2-11.7c0.6-5,11-8,23.3-6.6
				C332.3,543.8,341.8,549,341.2,554z"/>
			<g>
				<path class="st6" d="M497.3,632.7c3.6,12.7,0.2,24.6-7.6,26.6c-7.8,2-16.9-6.7-20.5-19.5c-3.6-12.7-0.2-24.6,7.6-26.6
					C484.5,611.3,493.7,620,497.3,632.7z"/>
				<path class="st8" d="M468.5,622.9c0,0,69.4-23.4,105.7-59.6c0,0,4.6-16.2,1.1-30.7c-4.2-17.3,12.7-19.3,15.4,5.9
					c0,0,6.9-10.5,12.9-22.6c6.1-12.1,17-11.5,18.8,1.7c0,0,12.1-1.2,11.5,12.1c0,0,9.1,2.3,7.3,13.2c0,0,7.9,1.5,3.6,12.1
					c-6.3,15.7-21.4,28.3-48.3,29.1c0,0-58,55.9-118,71.4C478.5,655.5,463.6,643.9,468.5,622.9z"/>
			</g>
			<g>
				<path class="st6" d="M259.4,645.6c-4.5-12.4-1.9-24.5,5.7-27.1c7.6-2.5,17.4,5.5,21.9,18c4.5,12.4,1.9,24.5-5.7,27.1
					C273.6,666.1,263.8,658,259.4,645.6z"/>
				<path class="st8" d="M288.7,653.4c0,0-67.5,28.2-101.2,66.9c0,0-3.4,16.5,1.1,30.7c5.5,17-11.3,20.2-15.8-4.8
					c0,0-6.1,10.9-11.3,23.4c-5.2,12.5-16.1,12.7-18.8-0.4c0,0-12,2-12.3-11.2c0,0-9.2-1.7-8.2-12.7c0,0-8-1-4.5-11.8
					c5.2-16.1,19.4-29.8,46.1-32.4c0,0,53.9-59.8,112.6-79.6C276.5,621.6,292.2,632.1,288.7,653.4z"/>
			</g>
			<path class="st14" d="M399,583.4c-11.3,18.6-37.6,20.2-51,3C362.3,581.5,383.6,580.2,399,583.4z"/>
			<path class="st15" d="M449.1,328c1.1,0,4.4,0.3,7.2,0.8c55,11.2,78.3,70.6,70.9,131.2c-5.2-40.9-10.9-104.8-71.4-129.7
				C451.7,328.7,449.1,328,449.1,328z"/>
			<path class="st15" d="M307.1,344.5c-10.9,4.9-32.3,18.3-48.8,40.8c-25.1,34.4-24.5,72.9-25,97.8c-15.7-69.4,20.1-125,71.8-138.2
				C306.5,344.7,307.1,344.5,307.1,344.5z"/>
			<path class="st15" d="M466.7,756.1c15.8-41.4,16.5-58.3,19.8-69.3c6.2,20.9-1.1,46.6-11.7,60.7
				C469.6,754.3,466.7,756.1,466.7,756.1z"/>
			<path class="st15" d="M296.1,690.1c3,32.2,24.6,66.5,28.6,75.9c-12.5-9.5-24.3-26.1-29.1-45.2C292,706.1,294,694.4,296.1,690.1z"
				/>
		</g>
		<path class="st16" d="M237.2,321.1c11.4,14.2-18.3,14.7-41,32.8c-22.6,18.1-29.6,47-41,32.8c-11.4-14.2-2.2-40.4,20.4-58.5
			C198.3,310.1,225.9,306.9,237.2,321.1z"/>
		<path class="st16" d="M602.4,361.3c-7.9,11.5-14.9-10.2-33.3-22.9c-18.4-12.6-41.2-11.4-33.3-22.9c7.9-11.5,29.2-10.6,47.6,2
			C601.9,330.2,610.3,349.8,602.4,361.3z"/>
	</g>
	<g>
		<g>
			<path class="st17" d="M983.7,956c0,0-25.4-8.5-31.7,10.7c-9,27.7,36.4,47.3,82.8,3.5L1021,943C1021,943,1001,957,983.7,956z"/>
			<path class="st18" d="M977.6,824.9c0,0,12.6,60.5,43.4,118.1c0,0-17.6,17.2-37.2,13c0,0-61.5-119.9-65.6-170
				C918.1,786,955.9,793.7,977.6,824.9z"/>
			<path class="st17" d="M1259.9,770.7c0,0,13.5-4.6,20.6-9.3c0,0,33,11.5,30.9,45.7c-2,34.1-46.9,30.3-44.9-5.4L1259.9,770.7z"/>
			<path class="st18" d="M1154.8,784.4c0,0,45.6,7.7,105.1-13.7c0,0,10.9,10.5,6.7,31c0,0-82.6,41.8-156.4,17
				C1110.1,818.7,1122.4,784,1154.8,784.4z"/>
			<path class="st19" d="M1175.8,801.3c-57.8,64.1-212.6,113.4-302.2-46.9c0,0,0,0,0,0C762.7,556.1,784,137.3,972.8,174.7
				c0,0,93.3-19.4,120.6,61.9c2.6,7.9,4.8,16.2,6.5,24.9c16.2,81.1-1.1,195.1,60.2,295.1C1214.2,644.7,1236.7,733.9,1175.8,801.3z"
				/>
			<path class="st20" d="M1175.8,801.3c-57.8,64.1-212.6,113.4-302.2-46.9c0.8,1,56.5,70.4,167.7,64.3
				c112-6.2,168.1-101.7,85.1-286.3c-64.2-142.8-32.8-247.7-26.4-270.9c16.2,81.1-1.1,195.1,60.2,295.1
				C1214.2,644.7,1236.7,733.9,1175.8,801.3z"/>
			<path class="st21" d="M877.4,505c-0.9,65.4,46.1,119.1,104.9,119.9c58.8,0.8,107.1-51.6,108-117c0.9-65.4-46.1-119.1-104.9-119.9
				C926.6,387.2,878.2,439.6,877.4,505z"/>
			<path class="st22" d="M975.4,167.8c0,0,12.1-18.3,43.3-11.3c31.3,7,58.6,42.5,88.3,29.8c0,0-31.7,28.2-85.9,7.8
				c0,0,6.5,3.1,11.6,21c5.1,17.9,18,27,31,27.2c0,0-60,18.8-82.9-34.4c0,0,2.4,19.2-14,31.4c-19.7,14.6-22.3,30.1-22.3,30.1
				s-15-27.6-11.7-56.1c0,0-45.3,24.4-78-8.2c37.2,2.3,27.4-13.9,60.6-20.6c0,0-51.7,14.8-64.3-15.1c0,0,21.3,3.3,49.2-7.7
				C928.3,150.6,961.5,148.6,975.4,167.8z"/>
			<path class="st23" d="M976.3,186.3c0,0,8.2-33-1.2-85.7c-8.6-48.2-25.6-74.6-34.2-77.1c-9.9-2.8-20,8.2-4.2,34.9
				c16,27.1,29.2,70,27.9,127.8C964.5,186.2,969.1,195.7,976.3,186.3z"/>
			<path class="st24" d="M877.4,501.2c-0.8,59.2,46.2,107.8,105,108.5c58.8,0.8,107.1-46.5,107.9-105.7
				c0.8-59.2-46.2-107.8-105-108.5C926.5,394.7,878.2,442.1,877.4,501.2z"/>
			<path class="st25" d="M939.2,450c33.2,37.9,91.6,40.6,157,19.5c0,0,8.6-67.8-65-95.5c-68.9-25.9-107.2,12.9-107.4,25.4
				c0,0-31.6-6.3-51.9,35.6c-15.2,31.3,6.3,59,6.3,59S911.9,500.3,939.2,450z"/>
			<path class="st24" d="M1069.3,488.8c-0.2,11.8,9.2,21.6,21,21.7c11.8,0.2,21.4-9.3,21.6-21.1c0.2-11.8-9.2-21.6-21-21.7
				C1079.2,467.5,1069.5,477,1069.3,488.8z"/>
			<path class="st24" d="M862,510.4c-0.2,11.8,9.2,21.6,21,21.7c11.8,0.2,21.4-9.3,21.6-21.1c0.2-11.8-9.2-21.6-21-21.7
				C871.8,489.1,862.2,498.6,862,510.4z"/>
			<path class="st11" d="M941.1,506.3c1.3,6.7,6.7,11.3,12.2,10.3c5.5-1,8.8-7.3,7.6-14.1c-1.3-6.7-6.7-11.3-12.2-10.3
				C943.2,493.3,939.9,499.6,941.1,506.3z"/>
			<path class="st11" d="M1009.6,500c1.3,6.7,6.7,11.3,12.2,10.3c5.5-1,8.8-7.3,7.6-14.1c-1.3-6.7-6.7-11.3-12.2-10.3
				C1011.7,487,1008.3,493.3,1009.6,500z"/>
			<path class="st26" d="M1020.8,536.4c0,0-31.6,18.6-62.8,6.3c0,0-0.6,42.9,39.2,35C1030.8,571.1,1020.8,536.4,1020.8,536.4z"/>
			<path class="st12" d="M975.4,515.4c0,0,0.4-0.9,1.4-2.2c0.5-0.7,1.1-1.5,2-2.3c0.8-0.9,1.8-1.8,3.1-2.6c1.2-0.9,2.7-1.7,4.5-2.1
				c1.8-0.5,3.9-0.5,6,0.1c1,0.4,2,0.8,2.9,1.5c0.5,0.3,0.8,0.7,1.3,1c0.2,0.2,0.4,0.4,0.6,0.5l0.3,0.3l0.1,0.1l0.1,0.1l0,0l0,0
				l0.1,0.1c0.3,0.4,0.6,0.7,0.9,1.1c0.3,0.5,0.7,1,0.9,1.4c0.6,0.9,0.9,2,1.2,3.1c0.5,2.2,0.3,4.6-0.6,6.7c-0.9,2-2.3,3.7-3.8,5
				c-1.6,1.2-3.3,2.1-5,2.6c-1.7,0.5-3.4,0.7-4.9,0.7c-1.5,0-2.9-0.2-4-0.5c-1.2-0.3-2.1-0.7-2.9-1.1c-0.8-0.4-1.3-0.7-1.7-1
				c-0.4-0.2-0.6-0.4-0.6-0.4s0.2,0.1,0.7,0.2c0.2,0.1,0.5,0.1,0.8,0.2c0.3,0.1,0.7,0.1,1.1,0.2c0.4,0.1,0.8,0.1,1.3,0.2
				c0.5,0.1,1,0.1,1.5,0.1c1.1,0.1,2.3,0,3.6-0.2c1.3-0.2,2.7-0.6,4-1.2c1.3-0.6,2.6-1.5,3.7-2.5c0.5-0.5,1.1-1.1,1.5-1.8
				c0.4-0.6,0.8-1.3,1-2c0.5-1.4,0.6-2.9,0.2-4.3c-0.2-0.7-0.5-1.4-0.8-2.1c-0.2-0.4-0.4-0.6-0.6-0.9c-0.2-0.3-0.6-0.7-0.8-1.1
				c0.1,0.1,0,0,0,0.1l0,0l0,0l-0.1-0.1l-0.1-0.1l-0.2-0.2c-0.1-0.1-0.3-0.3-0.4-0.4c-0.3-0.2-0.6-0.5-0.9-0.7
				c-0.6-0.5-1.2-0.8-1.8-1.1c-1.3-0.5-2.6-0.7-4-0.5c-1.4,0.2-2.7,0.6-3.9,1.1c-1.2,0.5-2.3,1.2-3.2,1.8c-0.9,0.6-1.7,1.2-2.4,1.6
				C976.1,514.8,975.4,515.4,975.4,515.4z"/>
			<g>
				<path class="st27" d="M850.5,599.1c-3.7,13.1-0.5,25.5,7,27.6c7.5,2.1,16.6-6.8,20.3-19.9c3.7-13.1,0.5-25.5-7-27.6
					C863.3,577.1,854.2,586,850.5,599.1z"/>
				<path class="st24" d="M878.7,589.2c0,0-51.8-19.1-86.8-57.1c0,0-8-18-7.2-39.4c0.9-21.4-19.3-16.3-17.9,8.7
					c0,0-12.9-12.1-18.6-24.7c-5.7-12.6-16.4-12.1-18.4,1.5c0,0-11.8-1.3-11.4,12.3c0,0-8.9,2.3-7.3,13.6c0,0-6.5,1.1-3.7,12.5
					c2.8,11.3,28.5,36.7,60.4,36.5c0,0,42.2,52.8,100.5,69.6C868.5,622.9,880.8,614.3,878.7,589.2z"/>
			</g>
			<g>
				<path class="st27" d="M1138.2,554.7c8.9,10.3,11.3,22.8,5.4,28c-5.9,5.2-17.9,1.1-26.8-9.2c-8.9-10.3-11.3-22.8-5.4-28
					C1117.3,540.3,1129.3,544.4,1138.2,554.7z"/>
				<path class="st24" d="M1108.5,558c0,0,38.7-39.6,54.1-89c0,0-0.4-19.7-10.3-38.7c-9.9-19,10.5-23.1,19.8,0.2
					c0,0,6.5-16.5,6.3-30.3s9.7-18,17.2-6.5c0,0,10.1-6.3,15.6,6.2c0,0,9-1.8,12.4,9.1c0,0,6.4-1.8,8.7,9.7
					c2.3,11.5-10.1,45.4-39.1,59.1c0,0-15.7,65.9-61.2,106.3C1132,584,1117.3,581.5,1108.5,558z"/>
			</g>
			<path class="st13" d="M901,533.1c-1,5.4,8.7,11.8,21.8,14.3c13,2.5,24.5,0.2,25.5-5.2c1-5.4-8.7-11.8-21.8-14.3
				C913.4,525.4,902,527.7,901,533.1z"/>
			<path class="st13" d="M1029.1,529.1c1.8,5.2,13.4,5.7,26,1.3c12.5-4.5,21.2-12.3,19.4-17.4c-1.8-5.2-13.4-5.7-26-1.3
				C1036,516.2,1027.3,524,1029.1,529.1z"/>
		</g>
		<path class="st28" d="M840.6,349.1c-15.3,82.4-2.4,117-14.6,114.5c-12.2-2.5-11.9-55,0.8-117.4c12.7-62.3,32.9-110.8,45.1-108.3
			C884.2,240.4,854,277,840.6,349.1z"/>
	</g>
	<g>
		<g>
			<g>
				<path class="st8" d="M1608.9,903.5c-21.9,9.5-49.4-6.2-49.4-6.2c1.6-5.8,2.9-12.1,3.9-18.6c0.9-5.8,1.5-11.8,2-17.8
					c2.8-35.9-0.9-72-0.9-72c16.9-15.2,34.3-8.4,34.3-8.4c0.8,27.8-4.3,63-7.7,83.2c-1.6,9.7-2.9,16-3,16.2c0,0,0,0,0,0
					C1611.7,868.1,1630.8,893.9,1608.9,903.5z"/>
				<path class="st29" d="M1608.9,903.5c-21.9,9.5-49.4-6.2-49.4-6.2c1.6-5.8,2.9-12.1,3.9-18.6c0.9-5.8,1.5-11.8,2-17.8
					c6.9,2.2,15.9,4,25.7,2.8c-1.6,9.7-2.9,16-3,16.2c0,0,0,0,0,0C1611.7,868.1,1630.8,893.9,1608.9,903.5z"/>
				<path class="st30" d="M1611,905c-16.5,10.5-51.5-7.7-51.5-7.7c0.3-6.5,1.1-18,4.8-25.2c6.2,6.2,15.2,8.2,23.7,3.7
					C1611.6,864,1629.7,893.2,1611,905z"/>
			</g>
			<g>
				<path class="st8" d="M1448.8,900.9c21.4,10.6,49.7-3.7,49.7-3.7c-1.3-5.9-2.3-12.2-3-18.8c-0.6-5.9-0.9-11.9-1.1-17.9
					c-1-36,4.5-71.8,4.5-71.8c-16.1-16-33.8-10.1-33.8-10.1c-2.2,27.8,1.1,63.1,3.5,83.4c1.2,9.8,2.1,16.1,2.1,16.4c0,0,0,0,0,0
					C1447.7,865.4,1427.4,890.3,1448.8,900.9z"/>
				<path class="st29" d="M1448.8,900.9c21.4,10.6,49.7-3.7,49.7-3.7c-1.3-5.9-2.3-12.2-3-18.8c-0.6-5.9-0.9-11.9-1.1-17.9
					c-7,1.9-16.1,3.1-25.8,1.5c1.2,9.8,2.1,16.1,2.1,16.4c0,0,0,0,0,0C1447.7,865.4,1427.4,890.3,1448.8,900.9z"/>
				<path class="st30" d="M1446.6,902.3c15.9,11.3,51.8-5.1,51.8-5.1c0-6.5-0.2-18-3.6-25.4c-6.5,5.9-15.6,7.5-23.9,2.5
					C1448,861.4,1428.6,889.5,1446.6,902.3z"/>
			</g>
			<path class="st30" d="M1446.8,670.4c0,0-13.6,71.9-8.2,115.3c0,0,24.7,15.7,83.1,11.2c0,0,1.9-38.2,9.4-58.4
				c0,0,7.9,25.5,6.7,58.4c0,0,51.5,12.7,85.2-5.2c0,0,8-47.9,2-110.1C1625,681.6,1553.1,650.9,1446.8,670.4z"/>
			<path class="st31" d="M1462.5,495.1c0,0-23.2,89.1-15.7,175.2c0,0,66.7,27,178.2,11.2c0,0,12.7-131.8-0.7-179.7
				C1624.2,501.9,1510.4,468.2,1462.5,495.1z"/>
			<path class="st32" d="M1805,490.3c-31.5,75.6-112.2,139.7-251.2,139.7c-79.1,0-178.2-30.4-231.5-100.2
				c-22.4-29.3-36.7-65.6-38.1-109.5c-5.7-188.6,181.2-241.1,281.6-205.2c0,0,150.7-32.6,232.2,110.8
				C1824.7,372.9,1828.2,434.7,1805,490.3z"/>
			<path class="st33" d="M1661.7,458c0,50.3-51.2,91-114.3,91c-63.1,0-114.3-40.7-114.3-91s51.2-91,114.3-91
				C1610.5,367,1661.7,407.7,1661.7,458z"/>
			<path class="st34" d="M1559.1,206c0,0,12-23.2,51.7-17.2c39.7,6,60.7,12,74.9,1.5c0,0-21.7,27-68.2,24.7c0,0,29.2,19.5,50.9,13.5
				c0,0-41.9,37.4-107.8,2.2c0,0-59.2,34.4-125.1-1.5c0,0,35.9,1.5,49.4-5.2c0,0-38.9-3-59.9-30.7c0,0,16.5,12,47.2,3.7
				C1502.9,188.8,1533.6,175.3,1559.1,206z"/>
			<path class="st35" d="M1549.4,215c0,0,7.5-84.6,49.4-130.3c0,0,13-14.3,22.5-1.5c12.7,17.2-44.2,46.4-55.4,131.8
				C1565.8,215,1557.6,228.5,1549.4,215z"/>
			<ellipse class="st8" cx="1546.4" cy="440.5" rx="110.8" ry="101.1"/>
			<path class="st36" d="M1425,419.5c0,0,28.5-9.7,52.4-4.5l8.2-27.7l6.7,27c0,0,35.2-6.7,53.2,0l10.5-24l6.7,24.7
				c0,0,27.7-0.7,41.2,6c0,0,9-24.7,9-22.5c0,2.2,4.5,27,4.5,27s34.5-2.2,59.9,6.7c0,0,8.2-69.6-40.4-92.1
				c-48.7-22.5-83.1-6.7-83.1-6.7s-36.7-21-77.9-4.5C1434.8,345.3,1418.3,390.3,1425,419.5z"/>
			<path class="st8" d="M1461.7,438.2c0,14.1-11.7,25.5-26.2,25.5s-26.2-11.4-26.2-25.5c0-14.1,11.7-25.5,26.2-25.5
				S1461.7,424.1,1461.7,438.2z"/>
			<path class="st8" d="M1684.2,450.2c0,14.1-11.7,25.5-26.2,25.5c-14.5,0-26.2-11.4-26.2-25.5c0-14.1,11.7-25.5,26.2-25.5
				C1672.4,424.7,1684.2,436.1,1684.2,450.2z"/>
			<path class="st26" d="M1578.5,487.8c-1.8,19.4-17.2,33.8-34.5,32.2c-17.3-1.6-29.9-18.5-28.1-37.9L1578.5,487.8z"/>
			<path class="st12" d="M1554.2,457.5c-6.5-5.6-13.9-9-18.9-2.1c-0.6,1-0.9,1.2-1.4,2.8c-1.5,6,5.5,13.9,18.3,10.7
				c-12.8,8.1-28.2-4-19.9-16C1540.1,443.1,1550.9,450.5,1554.2,457.5z"/>
			<path class="st37" d="M1488.4,437.2c0.4-1.8,2.9-6.9,9.2-9.7c10.7-4.4,21.7,3.2,23.7,12.7c-3.4-1.4-10.1-5.9-16.2-6.5
				C1499.6,432.9,1493.4,435.3,1488.4,437.2z"/>
			<path class="st37" d="M1605,444.8c-14.1-4.2-17.9-3.8-31,4.4c-1,0.6-1.6,0.9-1.6,0.9c2.3-16.1,23.8-20.9,31.9-7
				C1604.8,444.1,1605,444.8,1605,444.8z"/>
			<path class="st38" d="M1618.6,463.4c0.9,5.1-8.4,11-20.8,13.2c-12.4,2.2-23.2-0.1-24.1-5.2c-0.9-5.1,8.4-11,20.8-13.2
				C1606.9,456,1617.7,458.3,1618.6,463.4z"/>
			<path class="st38" d="M1516.7,462.3c-1.1,5.1-11.9,7.1-24.3,4.5c-12.3-2.6-21.5-8.8-20.4-13.8c1.1-5.1,11.9-7.1,24.3-4.5
				C1508.6,451.1,1517.7,457.3,1516.7,462.3z"/>
			<g>
				<path class="st33" d="M1666.5,546.9c2.5,9.6,0.1,18.6-5.3,20.1c-5.5,1.5-12-5.1-14.5-14.7c-2.5-9.6-0.1-18.6,5.3-20.1
					C1657.5,530.7,1664,537.3,1666.5,546.9z"/>
				<path class="st8" d="M1646.2,539.4c0,0,49-17.7,74.6-45c0,0,3.2-12.3,0.8-23.2c-3-13.1,9-14.6,10.9,4.5c0,0,4.8-7.9,9.1-17
					c4.3-9.1,12-8.7,13.3,1.3c0,0,8.6-0.9,8.1,9.1c0,0,6.4,1.7,5.1,10c0,0,5.6,1.1,2.6,9.1c-4.5,11.9-15.1,21.4-34.1,21.9
					c0,0-41,42.2-83.3,54C1653.3,564.1,1642.7,555.3,1646.2,539.4z"/>
			</g>
			<g>
				<path class="st33" d="M1412.4,544.6c-2.5,9.6-0.1,18.6,5.3,20.1c5.5,1.5,12-5.1,14.5-14.7c2.5-9.6,0.1-18.6-5.3-20.1
					C1421.4,528.4,1414.9,535,1412.4,544.6z"/>
				<path class="st8" d="M1432.7,537.2c0,0-49-17.7-74.7-45c0,0-3.2-12.3-0.7-23.2c3-13.1-9-14.6-10.9,4.5c0,0-4.8-7.9-9.1-17
					c-4.3-9.1-12-8.7-13.3,1.3c0,0-8.6-0.9-8.1,9.1c0,0-6.4,1.7-5.1,10c0,0-5.6,1.1-2.6,9.1c4.5,11.9,15.1,21.4,34.1,21.9
					c0,0,41,42.2,83.3,54C1425.6,561.8,1436.2,553,1432.7,537.2z"/>
			</g>
		</g>
		<path class="st39" d="M1358.8,312.5c-25.3,34.2-33.6,70.9-45.7,62c-12.1-8.9-1.4-43.9,23.8-78.2s55.5-54.7,67.6-45.8
			C1416.6,259.4,1384.1,278.2,1358.8,312.5z"/>
	</g>
	<g>
		<g>
			<g>
				<path class="st24" d="M1105.7,1852.6c-19.9,10.1-33.7-10.2-32.9-21.2c0-0.3,0-0.5,0.1-0.8c0,0-8-7.2-9.2-26.4
					c5.7-2.9,28-13.7,34.4-14.4C1098.1,1789.8,1126.1,1842.2,1105.7,1852.6z"/>
				<path class="st40" d="M990.5,1805.8c0,0,2.8,41.6,22.4,46.4c19.6,4.8,63.2-24.4,63.2-24.4s-3.2-18.8-8.8-25.6
					c0,0-22,8.8-36,15.6l-4.8-20.8C1026.5,1797,1010.1,1789.4,990.5,1805.8z"/>
				<path class="st24" d="M1001.8,1921c-58,28-79.8,1.8-71.4-13.8c4.6-8.6,12.7-10.4,19-10.4c5.2,0,9.2,1.4,9.2,1.4
					c18.6-1.2,33-6,33-6l2.2,6.2L1001.8,1921z"/>
				<path class="st40" d="M934,1798.6c0,0,14.4,69.6,24.6,99.5c0,0,18.8,4.8,33-6c0,0-13.8-65.4-15-104.3
					C976.6,1787.8,946.6,1781.8,934,1798.6z"/>
				<path class="st41" d="M968.1,1057.2c0,0-15.6-58.8-73.2-76.8c-57.6-18-108,2.4-163.1-21.6c-55.2-24-36,18,12,28.8
					c48,10.8,86.4,0,135.6,18c49.2,18,50.4,79.2,50.4,79.2S964.5,1100.4,968.1,1057.2z"/>
				<g>
					<path class="st42" d="M1093.7,1748.6c-16.4,31.6-40.4,57.2-73.8,70.3c-73.1,28.7-161.5-14.3-186.9-55.9
						c-35.2-57.6-20.8-171.1-12.8-268.7c8-97.6-12.8-271.9,11.2-363c13.4-51,56.1-80.4,108.4-89.9c13.8-2.6,27.1-3.6,41.7-2.8
						c98.4,5.3,141.6,94.7,160.1,191.8C1160.9,1331.2,1162.5,1615.9,1093.7,1748.6z"/>
				</g>
				<path class="st43" d="M983.7,1248.9c3.8,12.1,15.2,45.4,22.6,101.9c14.6,118.3,2.9,257.6-39.2,383.6
					C1005.9,1579,1020,1404.9,983.7,1248.9z"/>
				<path class="st43" d="M1111.9,1215.2c16.4,53,22,95.8,24.6,156c3.4,139.6-22,274.4-46.4,337.3c18.8-62.7,40.1-201.2,39.3-337.1
					C1127.9,1312.9,1125.3,1273.9,1111.9,1215.2z"/>
				<path class="st43" d="M845.8,1218.4c2.9,56.7,3.9,136.7,3.3,185.5c-0.1,7-0.1,14.1-0.2,21.2c0,3.6-0.1,7.1-0.1,10.7
					c-0.1,3.6-0.1,7.1-0.2,10.7c-0.1,2.7-2.4,106-6.4,156.7c-0.7,10.7-1.5,20.4-2.2,29.1c-0.7,8.7-1.3,16.2-1.8,22.4
					c-0.5,6.2-1,11.1-1.3,14.4c-0.3,3.3-0.5,5.1-0.5,5.1s0-1.8,0-5.1c0-3.3,0-8.2,0.1-14.5c0.1-6.2,0.2-13.8,0.4-22.5
					c0.2-8.7,0.4-18.5,0.7-29.2c0.1-5.3,0.3-10.9,0.3-16.7c1-58.3,2.9-148.4,3.1-161.3C842,1371.3,844.1,1273.1,845.8,1218.4z"/>
				<ellipse class="st44" cx="992.1" cy="1438.7" rx="117.7" ry="115.8"/>
				<path class="st12" d="M899.8,1458.6c0,0-59.4-7.2-77.4,50.4C822.5,1509,877,1512.6,899.8,1458.6z"/>
				<path class="st12" d="M1077.9,1448.4c0,0,59.4-7.2,77.4,50.4C1155.3,1498.8,1100.7,1502.4,1077.9,1448.4z"/>
				<path class="st24" d="M1109.7,1440.3c0,60.1-52.8,108.8-117.8,108.8c-65.1,0-117.8-48.7-117.8-108.8
					c0-60.1,52.8-108.8,117.8-108.8C1057,1331.5,1109.7,1380.2,1109.7,1440.3z"/>
				<path class="st24" d="M896.2,1440.3c0,11.4-9.8,20.7-21.9,20.7c-12.1,0-21.9-9.3-21.9-20.7c0-11.4,9.8-20.7,21.9-20.7
					C886.4,1419.6,896.2,1428.9,896.2,1440.3z"/>
				<path class="st24" d="M1122.3,1432.9c0,11.4-9.8,20.7-21.9,20.7s-21.9-9.3-21.9-20.7s9.8-20.7,21.9-20.7
					S1122.3,1421.4,1122.3,1432.9z"/>
				<path class="st12" d="M985,1374.6c0,0-46.4,65.3-128,53.3c0,0,0.2-68.4,42.4-99.1c46.2-33.6,82-0.4,82-0.4s21-24,58.8-16.8
					c37.8,7.2,75.9,44.3,73.5,104.3C1113.7,1416,1023.3,1440.8,985,1374.6z"/>
				<g>
					<path class="st44" d="M1126.8,1550.6c6.7,12.4,7.3,25.1,1.2,28.4s-16.5-4-23.3-16.3c-6.7-12.4-7.3-25.1-1.2-28.4
						S1120,1538.3,1126.8,1550.6z"/>
					<path class="st24" d="M1100,1548c0,0,48.7-45.5,56.8-87.8c0,0-14.8-28.2-9.6-38.9c6.1-12.6,22.7-15.3,22.7-15.3
						s13.3-51.8,25.9-51.8c12.7,0,9.7,20.2,0.3,35.5c0,0,11.1,2.6,7.7,11.9c0,0,6.4-2.4,8.3,4.7c0,0,9.8,1.5,8.4,12.5
						c-1.4,11-11.6,24-11.6,24s-7.7,20.6-25.9,25.9c0,0-28.7,83.3-65.5,109C1117.4,1577.6,1100.9,1565.9,1100,1548z"/>
				</g>
				<g>
					<path class="st44" d="M847.6,1550.6c-6.7,12.4-7.3,25.1-1.2,28.4c6.1,3.3,16.5-4,23.3-16.3c6.8-12.4,7.3-25.1,1.2-28.4
						C864.8,1531,854.4,1538.3,847.6,1550.6z"/>
					<path class="st24" d="M874.4,1548c0,0-48.7-45.5-56.8-87.8c0,0,14.8-28.2,9.6-38.9c-6.1-12.6-22.7-15.3-22.7-15.3
						s-13.3-51.8-25.9-51.8c-12.7,0-9.7,20.2-0.3,35.5c0,0-11.1,2.6-7.7,11.9c0,0-6.4-2.4-8.3,4.7c0,0-9.8,1.5-8.4,12.5
						c1.4,11,11.6,24,11.6,24s7.7,20.6,25.9,25.9c0,0,28.7,83.3,65.5,109C857,1577.6,873.5,1565.9,874.4,1548z"/>
				</g>
				<path class="st26" d="M956.9,1485.6c0,0,33.6,13.6,68-9.6c0,0,7.2,40-31.2,44C955.3,1523.9,956.9,1485.6,956.9,1485.6z"/>
				<path class="st37" d="M933,1447.2c-0.2-6.1,6.8-17.4,19.8-16.2c6.7,0.8,12.4,5,15,10.2c-3.8-0.5-12.1-3.3-18.5-2.2
					c-5.3,0.6-10.7,4.2-14.7,7.1C933.5,1446.8,933,1447.2,933,1447.2z"/>
				<path class="st37" d="M1034,1436.4c-4.9-1.5-9.9-3-15.1-2.8c-9.1,0.7-14.9,6.1-19.7,8.5c1-7.4,7.4-14.6,15.3-16
					C1023.7,1424.2,1032.3,1430.9,1034,1436.4z"/>
				<path class="st12" d="M989.3,1460.4c-3.2-2.8-8.2-6.3-12.1-4.6c-1.1,0.5-1.4,0.8-2.1,1.4c-6,6.3-0.1,12.3,5.6,13.3
					c2.8,0.5,4.4,0.2,7-0.5c-3.8,2.4-7.8,2.7-11,1.6c-10-3.5-9.3-15.5-0.5-18.5C982.1,1451.1,987.6,1456.6,989.3,1460.4z"/>
				<path class="st13" d="M1057.7,1450.9c1,5.4-9,11.8-22.2,14.1c-13.3,2.4-24.8-0.1-25.8-5.5c-1-5.4,9-11.8,22.2-14.1
					C1045.2,1443,1056.7,1445.4,1057.7,1450.9z"/>
				<path class="st13" d="M951.7,1467.6c0.5,5.5-10.1,10.9-23.5,12c-13.4,1.1-24.7-2.5-25.1-8c-0.5-5.5,10.1-10.9,23.5-12
					C940,1458.5,951.2,1462.1,951.7,1467.6z"/>
				<path class="st40" d="M1001.8,1921c-61.2,29.2-79.8,1.8-71.4-13.8c4.6-8.6,12.7-10.4,19-10.4c4.3,2.2,8.2,5.9,9.8,12.2
					c0,0,24,3,34.6-10.6L1001.8,1921z"/>
				<path class="st40" d="M1105.7,1852.6c-19.9,10.1-33.7-10.2-32.9-21.2c2.2-4.1,6.2-8.4,13.3-11.2c0,0-3.6-16.8-12-20.8
					c7.6-3.5,20.4-9.2,24-9.6C1098.1,1789.8,1126.1,1842.2,1105.7,1852.6z"/>
				<path class="st43" d="M929.7,1084.8c-13.3,8.2-29.5,26.8-39.2,52.5c-8.9,24.2-9.9,42.4-12.7,65.9
					C865.7,1137.2,902.4,1090.9,929.7,1084.8z"/>
				<path class="st43" d="M988.1,1073.7c33.3,6.1,82.4,49.5,78.4,116.7c-2.2-10.3-4.7-26.5-14.1-47.5c-1-2.4-0.5-1.3-2.8-5.9
					c-0.9-1.8-0.5-1.2-1.5-2.9c-2.8-5-0.8-1.7-5-8.7C1031.1,1106.3,1011.2,1086.5,988.1,1073.7z"/>
				<path class="st43" d="M954.5,1080.1c2.9,65.9,10.4,86.7,20.8,113.5C944.1,1157.7,947.8,1099.4,954.5,1080.1z"/>
				<g>
					<path class="st45" d="M1163.1,1428c1.9,0.4,5.4,2.5,8,6.7c0.4,0.7,0.8,1.4,1.1,2.2c0.3,0.8,0.6,1.5,0.9,2.3
						c0.2,0.8,0.4,1.5,0.6,2.3c0.1,0.8,0.2,1.5,0.3,2.2c0.1,0.7,0,1.4,0,2c0,1.2-0.2,2.2-0.4,2.9c-0.1,0.7-0.3,1.1-0.3,1.1
						s-0.2-0.4-0.4-1c-0.1-0.3-0.3-0.7-0.4-1.2c-0.1-0.5-0.4-0.9-0.5-1.5c-0.2-0.5-0.4-1.1-0.6-1.7
						C1170,1441,1168.4,1435.7,1163.1,1428z"/>
					<path class="st45" d="M1169.9,1406c2.8,0.7,7,4.9,5.9,10.4c-0.9,5.6-7.3,10.4-12.7,11.7
						C1167.8,1421.9,1177.4,1416.3,1169.9,1406z"/>
				</g>
				<g>
					<path class="st45" d="M809.1,1429.1c-7.2,10.4-8.5,18.1-10.2,21.6C795.9,1441.6,802.8,1430.3,809.1,1429.1z"/>
					<path class="st45" d="M802.3,1407.1c-7.5,10.2,1.7,15.4,6.8,22c-3-0.7-5.4-2.2-7.2-3.5C792.2,1418,796.7,1408.6,802.3,1407.1z"
						/>
				</g>
			</g>
			<g>
				<path class="st45" d="M1163.1,1428c1.9,0.4,5.4,2.5,8,6.7c0.4,0.7,0.8,1.4,1.1,2.2c0.3,0.8,0.6,1.5,0.9,2.3
					c0.2,0.8,0.4,1.5,0.6,2.3c0.1,0.8,0.2,1.5,0.3,2.2c0.1,0.7,0,1.4,0,2c0,1.2-0.2,2.2-0.4,2.9c-0.1,0.7-0.3,1.1-0.3,1.1
					s-0.2-0.4-0.4-1c-0.1-0.3-0.3-0.7-0.4-1.2c-0.1-0.5-0.4-0.9-0.5-1.5c-0.2-0.5-0.4-1.1-0.6-1.7
					C1170,1441,1168.4,1435.7,1163.1,1428z"/>
				<path class="st45" d="M1169.9,1406c2.8,0.7,7,4.9,5.9,10.4c-0.9,5.6-7.3,10.4-12.7,11.7
					C1167.8,1421.9,1177.4,1416.3,1169.9,1406z"/>
			</g>
		</g>
		
			<ellipse transform="matrix(0.9028 -0.4301 0.4301 0.9028 -446.117 497.2886)" class="st46" cx="877" cy="1235.5" rx="17.6" ry="17.6"/>
		<path class="st46" d="M886.3,1300.8c0,6-4.9,10.9-10.9,10.9c-6,0-10.9-4.9-10.9-10.9c0-6,4.9-10.9,10.9-10.9
			C881.4,1289.9,886.3,1294.8,886.3,1300.8z"/>
		<path class="st46" d="M943.9,1282.2c0,7.7-6.3,14-14,14c-7.7,0-14-6.3-14-14s6.3-14,14-14C937.6,1268.2,943.9,1274.4,943.9,1282.2
			z"/>
		
			<ellipse transform="matrix(0.6227 -0.7825 0.7825 0.6227 -543.7206 1306.0073)" class="st46" cx="1082.4" cy="1216.8" rx="18.7" ry="18.7"/>
		<circle class="st46" cx="1093.3" cy="1272.8" r="23.3"/>
		<path class="st46" d="M1052.8,1269.7c0,7.7-6.3,14-14,14c-7.7,0-14-6.3-14-14s6.3-14,14-14
			C1046.5,1255.7,1052.8,1262,1052.8,1269.7z"/>
		<path class="st47" d="M968.8,1777c0,6-4.9,10.9-10.9,10.9c-6,0-10.9-4.9-10.9-10.9c0-6,4.9-10.9,10.9-10.9
			C963.9,1766.1,968.8,1771,968.8,1777z"/>
		<path class="st48" d="M965,1076.7c26.8,16.8,39.3,55.4,27,87.1c-0.2-3.4-0.4-24.2-5.4-41.7C979.4,1096.3,970.3,1084.8,965,1076.7z
			"/>
		<path class="st48" d="M940.1,1085c-3.2,6.4-7.5,12.4-13.7,33.7c-7.2,29.8-5.4,44.6-5,63.8C907.1,1151.1,913.6,1107.1,940.1,1085z"
			/>
		<path class="st48" d="M1000.3,1058c38.2-3.3,74.8,31.4,80.9,68.5c-8.8-14.7-19.7-32.7-41.3-49.2
			C1022.8,1064.6,1011.3,1061.2,1000.3,1058z"/>
		<path class="st48" d="M948.4,1058c-7.8-0.3-13-0.5-21.5,1.2c-7.9,1.5-16.1,4.6-22.6,8.1c-16.6,8.6-31.4,23.3-36.8,28.1
			C881.3,1063.2,919.5,1043,948.4,1058z"/>
		<path class="st43" d="M917.3,1800.8c-28.2,1.6-65.1-24.8-72.6-58.1c0.7,1,1.8,2.4,2.5,3.4c0.4,0.5,0.8,1.1,1.2,1.8
			c0.5,0.6,1,1.3,1.6,2c1.1,1.4,2.3,3.1,3.8,4.8c1.4,1.7,2.9,3.6,4.7,5.4c0.8,0.9,1.7,1.9,2.6,2.9c1,0.9,1.9,1.9,2.9,2.9
			c2.4,2.6,8.4,7.7,9.4,8.6c2,1.8,1.3,1.1,3.4,2.8c2.9,2.3,1.3,1.1,6.9,5.3c0.9,0.7,1.3,0.9,5.2,3.7c1,0.7,0.7,0.5,1.7,1.1
			c7.1,4.5,4.9,3,6.7,4.2C905.8,1796.9,915.3,1800,917.3,1800.8z"/>
		<path class="st43" d="M996.2,1805c44.3-19.6,63.7-39,74.7-47.7c-8,16.4-22.4,29.3-38.5,38.1
			C1020.7,1801.3,1009.4,1805.3,996.2,1805z"/>
		<path class="st43" d="M950.5,1794.6c-30.4-21.2-43.7-62.6-24.9-95.4c-1.1,8.2-4.1,22.4-0.4,41.2c0.6,3,0.7,3.6,0.9,4.5
			C932.7,1769.9,942.7,1782.6,950.5,1794.6z"/>
		<path class="st43" d="M973.3,1800.8c3.7-8.9,15.4-27.4,26.7-63.6c1.2-3.6,1.6-5.2,2.3-6.9
			C1006.8,1754.3,993.3,1786.4,973.3,1800.8z"/>
		<path class="st47" d="M925.6,1775.9c0,6.9-5.6,12.5-12.4,12.5c-6.9,0-12.4-5.6-12.4-12.5c0-6.9,5.6-12.4,12.4-12.4
			C920.1,1763.5,925.6,1769,925.6,1775.9z"/>
		
			<ellipse transform="matrix(0.7071 -0.7071 0.7071 0.7071 -964.7726 1135.4949)" class="st47" cx="888.3" cy="1732.3" rx="12.4" ry="12.4"/>
		<path class="st47" d="M967.1,1726.1c0,9.2-7.4,16.6-16.6,16.6c-9.2,0-16.6-7.4-16.6-16.6s7.4-16.6,16.6-16.6
			C959.7,1709.5,967.1,1716.9,967.1,1726.1z"/>
		<path class="st47" d="M1064.6,1732.3c0,9.2-7.4,16.6-16.6,16.6c-9.2,0-16.6-7.4-16.6-16.6s7.4-16.6,16.6-16.6
			C1057.2,1715.7,1064.6,1723.2,1064.6,1732.3z"/>
		<circle class="st47" cx="969.2" cy="1234.4" r="14.5"/>
		<path class="st47" d="M1089.5,1607.8c0,4.6-3.7,8.3-8.3,8.3c-4.6,0-8.3-3.7-8.3-8.3c0-4.6,3.7-8.3,8.3-8.3
			C1085.8,1599.5,1089.5,1603.3,1089.5,1607.8z"/>
		<path class="st47" d="M1093.7,1653.5c0,5.7-4.6,10.4-10.4,10.4s-10.4-4.6-10.4-10.4c0-5.7,4.6-10.4,10.4-10.4
			S1093.7,1647.8,1093.7,1653.5z"/>
		<path class="st47" d="M894.5,1622.4c0,10.3-8.4,18.7-18.7,18.7c-10.3,0-18.7-8.4-18.7-18.7s8.4-18.7,18.7-18.7
			C886.1,1603.7,894.5,1612,894.5,1622.4z"/>
	</g>
	<g>
		<g>
			<g>
				<g>
					<path class="st8" d="M476.6,1896.8c-1.7,2.8-4.5,4.5-7.8,5.5c-13.5,4.1-36.5-3.9-36.5-3.9c1.1-6.4,1.9-12.7,2.5-18.7
						c0.5-5,0.8-9.9,0.9-14.5c0.9-27.1-2.8-46.3-2.8-46.3c14.6-13,28.1-6.5,28.1-6.5c1.4,14.6-1.2,38.8-3.3,54
						c-1.1,8.4-2.1,14.1-2.1,14.1c6.7-5.9,14.5-5.1,19.2-1C479.1,1883.4,480.8,1890,476.6,1896.8z"/>
					<path class="st49" d="M474.7,1879.6c-1.2,7.3-3,15.6-5.9,22.7c-13.5,4.1-36.5-3.9-36.5-3.9c1.1-6.4,1.9-12.7,2.5-18.7
						c0.5-5,0.8-9.9,0.9-14.5c8.3,1.7,15.8,1.8,22,1.2c-1.1,8.4-2.1,14.1-2.1,14.1C462.3,1874.6,470,1875.5,474.7,1879.6z"/>
					<path class="st50" d="M403.1,1757.8c0,0,11.9,42.2,11.9,73c0,0,47.1,7.6,75.2-17.8c0,0-9.7-47-22.2-71.4
						C468,1741.5,432.8,1732.9,403.1,1757.8z"/>
					<path class="st50" d="M476.6,1896.8c-8.7,14.1-44.3,1.6-44.3,1.6c1.1-6.4,1.9-12.7,2.5-18.7c9.4,2.2,20.8,0.8,20.8,0.8
						C468.5,1869.2,485.3,1882.7,476.6,1896.8z"/>
				</g>
				<g>
					<path class="st8" d="M369.4,1898.4c0,0-19.9,6.9-33.6,4.6c-4.6-0.8-8.6-2.7-10.8-6.2c-4.9-7.9-1.7-15.6,4.3-18.9
						c4.7-2.5,11.1-2.3,16.8,2.6c0,0-1-5.9-2.1-14.4c-2.1-15.3-4.7-39.2-3.3-53.7c0,0,13.5-6.5,28.1,6.5c0,0-3.8,19.4-2.8,46.8
						c0.2,4.5,0.4,9.2,0.9,14C367.4,1885.7,368.2,1892,369.4,1898.4z"/>
					<path class="st49" d="M369.4,1898.4c0,0-19.9,6.9-33.6,4.6c-3.3-7.9-5.2-17.1-6.4-25.1c4.7-2.5,11.1-2.3,16.8,2.6
						c0,0-1-5.9-2.1-14.4c6.1,0.8,13.6,1,22-0.4c0.2,4.5,0.4,9.2,0.9,14C367.4,1885.7,368.2,1892,369.4,1898.4z"/>
					<path class="st50" d="M398.6,1757.8c0,0-11.9,42.2-11.9,73c0,0-47.1,7.6-75.2-17.8c0,0,9.7-47,22.2-71.4
						C333.7,1741.5,368.8,1732.9,398.6,1757.8z"/>
					<path class="st50" d="M325,1896.8c8.7,14.1,44.3,1.6,44.3,1.6c-1.1-6.4-1.9-12.7-2.5-18.7c-9.4,2.2-20.8,0.8-20.8,0.8
						C333.1,1869.2,316.4,1882.7,325,1896.8z"/>
				</g>
				<path class="st51" d="M589.8,1307.9c-21.6,43.3-45.1,172.3-53.4,259.6c-3.2,33.8-5.7,68.3-11.8,99.5
					c-13.3,67.2-43.9,118.8-136.3,113.6c-78.2-4.4-105.2-49.4-115.2-112c-6.5-40.1-6-87.3-7.7-135.7
					c-3.8-109.6-54.8-229.3-54.8-229.3c37.5-44.7,75-21.6,75-21.6s5.8,93.7,46.1,95.2c53.4,1.9,36.1-93.7,36.1-93.7
					c43.3-37.5,76.4,2.9,76.4,2.9s-24.5,82.2,28.8,86.5c53.4,4.3,50.5-86.5,50.5-86.5C579.7,1271.9,589.8,1307.9,589.8,1307.9z"/>
				<path class="st52" d="M511.9,1518.8c0,53-48.9,95.9-109.3,95.9c-60.3,0-109.3-43-109.3-95.9c0-53,48.9-95.9,109.3-95.9
					C463,1422.9,511.9,1465.9,511.9,1518.8z"/>
				<path class="st8" d="M506.2,1510.9c0,55.6-46.7,100.6-104.2,100.6c-57.5,0-104.2-45-104.2-100.6c0-55.6,46.7-100.6,104.2-100.6
					C459.5,1410.3,506.2,1455.4,506.2,1510.9z"/>
				<path class="st53" d="M298.7,1506.3c0.5-1.6,50.8,3.2,82.7-26c0,0-1.6,12.4-15.1,21.1c0,0,41.1,5.9,61.7-24.3
					c0,0,30.3,37.9,77.9,28.1l10.3,3.2c0,0,9.7-44.9-17.3-76.3c-27-31.4-61.1-19.5-61.1-19.5s-32.4-23.3-77.3-10.3
					c-44.9,13-81.1,56.8-66.5,103.8H298.7z"/>
				<path class="st8" d="M319.2,1520.9c0,11-7.4,19.8-16.4,19.8c-9.1,0-16.4-8.9-16.4-19.8c0-11,7.4-19.8,16.4-19.8
					C311.9,1501,319.2,1509.9,319.2,1520.9z"/>
				<path class="st8" d="M522.6,1518.7c0,11-8.2,19.8-18.3,19.8c-10.1,0-18.3-8.9-18.3-19.8c0-11,8.2-19.8,18.3-19.8
					C514.4,1498.9,522.6,1507.7,522.6,1518.7z"/>
				<path class="st26" d="M373.9,1561.5c0,0,31.3,19.1,59.5-1.1c0,0-1,30.3-29.7,30.3C374.9,1590.7,373.9,1561.5,373.9,1561.5z"/>
				<path class="st12" d="M409.5,1539.9c-5.7-4.9-12.5-8.5-17.5-2.9c-0.3,0.4-0.9,1-1.3,1.7c-3.7,6,3,13.3,11.9,13
					c1.9-0.1,3.4-0.4,4.3-0.6c0.4-0.1,0.6-0.1,0.6-0.1c-0.8,0.5-1.2,0.8-2.1,1.2c-5.6,2.5-11.3,1.4-15.2-1.8
					c-9.8-8-0.3-21.9,9.3-19.1C404.6,1532.7,408.5,1537.8,409.5,1539.9z"/>
				<g>
					<path class="st54" d="M523.4,1599c2.4,9.3,0.1,17.9-5.1,19.3c-5.3,1.4-11.5-4.9-14-14.2c-2.4-9.3-0.1-17.9,5.1-19.3
						C514.7,1583.4,521,1589.7,523.4,1599z"/>
					<path class="st8" d="M503.9,1591.8c0,0,47.2-17,71.9-43.4c0,0,3.1-11.8,0.7-22.4c-2.9-12.6,8.7-14.1,10.5,4.3
						c0,0,4.7-7.6,8.8-16.4c4.1-8.8,11.5-8.4,12.8,1.3c0,0,8.2-0.8,7.8,8.8c0,0,6.2,1.7,4.9,9.6c0,0,5.4,1.1,2.5,8.8
						c-4.3,11.4-14.6,20.6-32.8,21.1c0,0-39.5,40.7-80.2,52C510.7,1615.5,500.5,1607.1,503.9,1591.8z"/>
				</g>
				<g>
					<path class="st54" d="M278.7,1596.8c-2.4,9.3-0.1,17.9,5.1,19.3c5.3,1.4,11.5-4.9,14-14.2c2.4-9.3,0.1-17.9-5.1-19.3
						C287.4,1581.2,281.1,1587.6,278.7,1596.8z"/>
					<path class="st8" d="M298.3,1589.7c0,0-47.2-17-71.9-43.4c0,0-3.1-11.8-0.7-22.4c2.9-12.6-8.7-14.1-10.5,4.3
						c0,0-4.7-7.6-8.8-16.4c-4.1-8.8-11.5-8.4-12.8,1.3c0,0-8.2-0.8-7.8,8.8c0,0-6.2,1.7-4.9,9.6c0,0-5.4,1.1-2.5,8.8
						c4.3,11.4,14.6,20.6,32.8,21.1c0,0,39.5,40.7,80.2,52C291.5,1613.4,301.6,1604.9,298.3,1589.7z"/>
				</g>
				<path class="st52" d="M256.9,1313.6c-20.5,44.8-111.9,43.2-101.7-33.5c-90.4,14.9-73.1-109.2-13-93c-47.4-70.1,43-137.7,81.1-92
					c0,0-8.5-52.6,43.3-71.4c47.6-17.3,76.8,22.7,76.8,22.7s21.6-42.2,72.5-38.9c50.8,3.2,59.5,55.2,59.5,55.2s28.9-48.1,76.8-32.5
					c59.5,19.5,41.1,74.6,41.1,74.6s46.5-34.6,85.5,0c38.9,34.6,1.1,85.5-13,93c82.6,27.9,32,119.5-22.7,98.4
					c5.8,47.7-76.4,82.3-110.3,18.4c0,0-46.8,61-137.4,13C395.4,1327.7,308.8,1372.3,256.9,1313.6z"/>
				<path class="st37" d="M346.8,1527.9c0.1-2.5,2.5-9.7,10.5-12.6c9.3-3.2,18.3,2.5,21.2,9.4c-2.2-0.4-6.9-2.2-11-2.8
					c-7.5-1.5-13.2,1.5-19.2,5.1C347.3,1527.5,346.8,1527.9,346.8,1527.9z"/>
				<path class="st37" d="M449.7,1520.7c-6.5-1.9-13.2-4-20.2-1c-6.9,3.2-8.7,4.9-11.2,6.2c0.7-4.8,4.2-10.4,9.8-13.1
					C438,1508,447.9,1514.7,449.7,1520.7z"/>
				<path class="st38" d="M467.2,1537c0.9,4.9-8.1,10.6-20.1,12.7c-12,2.1-22.4-0.1-23.2-5c-0.9-4.9,8.1-10.6,20.1-12.7
					C456,1529.9,466.4,1532.1,467.2,1537z"/>
				<path class="st38" d="M373.7,1545.9c-0.5,5-10.7,8-22.8,6.8c-12.1-1.2-21.5-6.2-21-11.1c0.5-5,10.7-8,22.8-6.8
					C364.8,1536,374.2,1541,373.7,1545.9z"/>
			</g>
			<path class="st55" d="M201.4,1182.6c-0.5-4.5-0.5-4.8-0.3-8.5c0.1-3.6,1.8-10,3.9-14.1c18.6-35.4,74.9-28.2,94,6
				c-19.9-10.2-39.3-18.5-65.3-13.2c-14.3,3.4-22.8,11.8-29.8,24.8C203.5,1178.1,202.3,1180.8,201.4,1182.6z"/>
			<path class="st55" d="M286.5,1145.2c-2-13.6,3.5-25.6,13.2-33.8c24.8-20.2,61.8-5.7,65.7,23.5c-5.6-5.1-16.7-17-34.5-18.3
				c-10.7-0.8-21.3,2.5-30.1,9.8C292.6,1133.4,289.7,1139.6,286.5,1145.2z"/>
			<path class="st55" d="M381.9,1151.4c14.1-58.7,101.3-64.7,110,0c-10.2-13.5-11.2-15.2-22.9-23.9c-2.2-1.3-5.8-3.4-8.3-4.3
				c-19.6-8.9-45.6-1.3-62.9,12.8C389.5,1142.7,387.8,1145.1,381.9,1151.4z"/>
			<path class="st56" d="M296.8,1238.6c9.3,9.8,34.3,42.1,90.5,12.3c1.3-0.7,2.6-1.3,3.7-2c7.5-4.2,8.1-4.9,13.7-8.2
				C380.6,1288.9,307.3,1290.8,296.8,1238.6z"/>
			<path class="st56" d="M375.7,1265.6c21.8,9.9,54.8,25.2,90.1,4.2c14-8.1,22.7-19.3,32.3-31.2C487,1297.8,413,1314.4,375.7,1265.6
				z"/>
			<path class="st56" d="M483.6,1219.9c2,2.6,6.5,9.2,12.4,15.1c1.4,1.3,7,7.2,14.6,11.4c18.1,10.1,35.6,9.2,55.2,2
				c10.8-4.6,15.5-7.7,19.5-9.8C559.4,1286.3,488,1273.1,483.6,1219.9z"/>
		</g>
		<path class="st57" d="M524.6,1667c-13.3,67.2-43.9,118.8-136.3,113.6c-78.2-4.4-105.2-49.4-115.2-112
			c3.4,11.4,17.3,86.5,114.7,90.3c119.8,4.7,135.4-91.8,135.4-91.8C523.6,1667.1,524.1,1667,524.6,1667z"/>
	</g>
	<g>
		<g>
			<path class="st50" d="M1586.1,1922.6c0,0,27.9-16.3,39.4,0.5c12.2,17.8-8.8,47.1-78.4,32.8l2.3-26.6L1586.1,1922.6z"/>
			<path class="st58" d="M1543.8,1789.5c0,0,12.7,72.7,4.9,142.6c0,0,22.8,2.3,37-9.2c0,0,4.6-115.6-12.1-163.5
				C1573.5,1759.4,1560.3,1755.1,1543.8,1789.5z"/>
			<path class="st50" d="M1329.6,1852.7c0,0-22.9-15.3-37,9.2c-10.7,18.7,17.5,47.2,80.7,14.8l-4.2-29.3L1329.6,1852.7z"/>
			<path class="st58" d="M1436.9,1713.6c0,0-80.3,37.2-107.1,66.9c0,0-7,26-0.2,72.1c0,0,29,5.1,39.5-5.3c0,0-4.5-47.3-3.5-50.1
				c1-2.8,70.3-31,90.9-35.4C1456.4,1761.8,1457.4,1724.4,1436.9,1713.6z"/>
			<g>
				<path class="st8" d="M1659,1565.5c0,0,66.1-14.2,121.6-53.7c0,0,10.6-14.3,13.8-31.8c4.7-25.4,22.3-20.3,15.7,5.9
					c0,0,10.5-3.5,19.1-17.8c8.7-14.3,21.9-2.6,15.3,9.7c0,0,16.1-7,9.8,12.5c0,0,12.8-2.5,5.6,15.5c0,0,8.7-0.6,1.7,11.7
					c-7,12.2-43.6,26.8-64.8,17.4c0,0-61.3,51.2-133.9,63.2C1663.1,1598.3,1653.1,1595.1,1659,1565.5z"/>
			</g>
			<g>
				<path class="st8" d="M1495.6,1530.5c0,0-50.7-44.7-79.9-106.2c0,0-2.3-17.7,3.4-34.5c8.3-24.5-9.5-28.6-16.6-2.5
					c0,0-7.4-8.2-8-24.8c-0.6-16.7-17.9-12.9-18.2,1c0,0-10.6-14-14.7,6.2c0,0-9.9-8.4-12.5,10.8c0,0-7.3-4.7-7.2,9.4
					c0.1,14.1,25,44.7,48,46.8c0,0,28.5,74.6,86,120.6C1476,1557.2,1486.3,1559.3,1495.6,1530.5z"/>
			</g>
			<path class="st59" d="M1636.9,1135.9c0,0,30.3-117.1,112.4-167.4c58.1-35.6,83.8-1,63.9,33.5
				C1793.2,1036.5,1699.9,1055.8,1636.9,1135.9z"/>
			<path class="st60" d="M1619.4,1151.1c0,0,64.7-85.3,146.4-99.3c57.8-9.9,69,28.2,45.1,47.1
				C1775.3,1127,1697.6,1087.3,1619.4,1151.1z"/>
			<path class="st59" d="M1640,1143.2c0,0,11.5-120.4-48.5-195.7c-42.5-53.3-78.4-29.6-71.5,9.7
				C1527,996.5,1608.2,1046.4,1640,1143.2z"/>
			<path class="st60" d="M1651.3,1163.5c0,0-31.7-102.3-103.7-143.3c-50.9-29-74.5,2.9-58.5,28.9
				C1513,1087.6,1599.5,1076.8,1651.3,1163.5z"/>
			<path class="st61" d="M1642.4,1157.6c0,0-20.8-66.2-1.3-174c19.5-107.8,61.9-148.2,95.4-133.6c33.5,14.6,7.4,73-20.7,118.9
				C1687.8,1014.9,1652.1,1083.4,1642.4,1157.6z"/>
			<path class="st62" d="M1744.9,1461.5c-13.2,39.4-27.7,76.3-43,110.5c-84.8,189.1-195.3,297-249.6,286.5
				c-72.7-14-32.3-168.1-11.8-241.6c39.6-142.1,8.3-287.7,53.1-406.2c20.2-53.3,63.9-74.7,99.8-83.1c30.5-7.1,55.4-4.9,55.4-4.9
				c19.5,3.4,36.6,8.3,51.5,14.6C1807.7,1182.8,1798.4,1301.6,1744.9,1461.5z"/>
			<ellipse class="st63" cx="1592" cy="1524.5" rx="93" ry="85.5"/>
			<path class="st64" d="M1608.1,1161.1c0.9,17.9-6-4.5-58.5,36c-25.5,19.6-37.7,54.1-45,40.5c-10.6-19.6,6.9-54,32.4-73.6
				C1566.2,1141.6,1607.1,1142.8,1608.1,1161.1z"/>
			<path class="st8" d="M1677.2,1531.3c-7.4,46.1-54.4,76.8-104.8,68.7c-50.5-8.1-85.4-52.1-77.9-98.2
				c7.4-46.1,54.4-76.8,104.8-68.7C1649.8,1441.3,1684.7,1485.3,1677.2,1531.3z"/>
			<path class="st65" d="M1500,1477.1c0,0,17.3,7.5,27-10.2c0,0,23.9,6.1,30.5-16.3c0,0,12.4,9.9,27.1-3.7c0,0,11.1,18.4,26.7,7.1
				c0,0,7.7,23.9,26.2,11.3c0,0,2.9,27.7,23.7,21.9c0,0-10.5,32.1,10,36.4c0,0,9.9,1.7,18.5,9.8c0,0,11.2-17.6,2-40.2
				c0,0,18.5-11.8-0.9-33.3c0,0,9.5-22.8-14.8-31.8c0,0-8.6-21.8-33.5-17.9c0,0-3-19.8-33.4-12.1c0,0-15.7-22.5-40.7-4.2
				c0,0-25.4-12.7-34.1,16c0,0-21.3-2.9-23.5,25c0,0-22.9,6.9-19.6,36.9L1500,1477.1z"/>
			<path class="st8" d="M1516.8,1489.6c-1.1,10.6-10.4,18.4-20.9,17.3c-10.4-1.1-18-10.6-16.9-21.2c1.1-10.6,10.4-18.4,20.9-17.3
				C1510.3,1469.4,1517.9,1478.9,1516.8,1489.6z"/>
			<path class="st8" d="M1693,1540.1c-1.1,10.6-10.4,18.4-20.9,17.3c-10.4-1.1-18-10.6-16.9-21.2c1.1-10.6,10.4-18.4,20.9-17.3
				C1686.5,1520,1694.1,1529.4,1693,1540.1z"/>
			<path class="st66" d="M1615.2,1550.1c-1.8,7.6-5.7,14.1-10.8,19.1c-9.1,8.8-22.2,12.9-35.2,9.8c-12.1-2.8-21.4-11.2-26-21.9
				c-3.2-7.5-4.2-16-2.2-24.6L1615.2,1550.1z"/>
			<path class="st14" d="M1604.4,1569.2c-19.2,18.5-50.6,12.4-61.2-12.1C1559,1551.7,1595.7,1563,1604.4,1569.2z"/>
			<path class="st12" d="M1595.2,1514.8c-1.9-1.8-4.6-4.1-7-5.4c-2.3-1.3-4.7-2.1-7.3-1.3c-1.5,0.5-2.8,1.4-3.9,2.5
				c-0.3,0.3-0.8,0.9-1,1.2c-1.3,1.7-1.7,3.8-1.2,5.7c0.3,1.2,0.8,2.4,1.9,3.7c1.6,1.9,3.9,3.6,6.8,4.5c1.2,0.4,2.4,0.6,3.4,0.7
				c0.5,0,1,0.1,1.5,0.1c0.5,0,0.9,0,1.3,0c0.4,0,0.7,0,1.1-0.1c0.3,0,0.6-0.1,0.8-0.1c0.4,0,0.7-0.1,0.7-0.1s-0.2,0.1-0.6,0.3
				c-0.4,0.2-1,0.5-1.7,0.8c-0.8,0.3-1.7,0.6-2.9,0.8c-1.2,0.2-2.5,0.3-4,0.1c-5.5-0.5-10.9-4.1-12.5-9.6c-1-3.4-0.3-7.1,1.8-9.7
				c0.4-0.5,1.1-1.4,1.6-1.8c2-1.9,4.1-3,6.2-3.4c3.8-0.7,7.2,0.7,10.1,3.2c1.7,1.5,3.2,3.6,4.2,5.5
				C1594.9,1513.9,1595.2,1514.8,1595.2,1514.8z"/>
			<path class="st67" d="M1571.6,1491.2c-1.2,6-6,10.1-10.8,9.2c-4.8-0.9-7.7-6.5-6.6-12.5c1.2-6,6-10.1,10.8-9.2
				C1569.8,1479.6,1572.7,1485.2,1571.6,1491.2z"/>
			<path class="st67" d="M1627.2,1508.4c-1.5,5.9-6.6,9.7-11.3,8.5c-4.7-1.2-7.3-7-5.8-12.9c1.5-5.9,6.5-9.7,11.3-8.5
				C1626.1,1496.7,1628.7,1502.5,1627.2,1508.4z"/>
			<path class="st68" d="M1516.8,1199.5c21.6,20.9,120.7,40.1,143.8,46.5c-52.7-1.6-101-16.5-120.4-28.2
				C1533.3,1213.9,1521.2,1206.6,1516.8,1199.5z"/>
			<path class="st68" d="M1589.9,1316.6c21.4,6.5,31.7,9.6,64.5,13.2c2.8,0.4,27.4,2.1,42.2,1.4c38.5-1.1,57.3-6.5,73.3-10.6
				C1717.2,1346.1,1640.7,1344,1589.9,1316.6z"/>
			<path class="st68" d="M1452.2,1647.3c1.8,1.4,21.4,17.9,43.7,27.5c29.9,13,59.5,18.8,88.6,19c18.4-0.2,5.6-0.1,20.2-0.6
				c-17.6,4.6-25.3,5-41.8,5.1C1519.2,1696.2,1480.7,1681.7,1452.2,1647.3z"/>
			<path class="st68" d="M1456.9,1714.2c6.4,4.6,2.9,2.8,14.1,9.4c21.9,13.4,63.8,17.8,76.7,20.1
				C1518.2,1749.5,1475.5,1742.9,1456.9,1714.2z"/>
			<path class="st68" d="M1504.9,1258.9l22.9,9.6c30.6,11.4,36,13.3,40.9,15.7C1547.4,1285.5,1520.1,1276.6,1504.9,1258.9z"/>
			<path class="st68" d="M1608.5,1197.4c12.3,2.7,28.6,7.5,63.6,10.2c35.6,2.1,56.3-0.4,77.8-1.4
				C1706.2,1220,1651.6,1219.5,1608.5,1197.4z"/>
			<path class="st69" d="M1700.3,1137.3c-12.9,7-33.3,10.4-55.7,8.1c-21.3-2.2-39.7-9-51.2-17.8c30.5-7.1,55.4-4.9,55.4-4.9
				C1668.3,1126.1,1685.4,1131,1700.3,1137.3z"/>
			<path class="st38" d="M1641.2,1538.8c-0.7,5.1-9,8.1-18.4,6.8c-9.4-1.3-16.5-6.6-15.8-11.7c0.7-5.1,9-8.2,18.4-6.8
				C1634.9,1528.5,1642,1533.7,1641.2,1538.8z"/>
			<path class="st38" d="M1559.4,1522.5c-2.1,4.7-10.9,5.3-19.6,1.4c-8.7-3.9-14-10.9-11.9-15.6c2.1-4.7,10.9-5.3,19.6-1.4
				S1561.6,1517.8,1559.4,1522.5z"/>
		</g>
		<path class="st63" d="M1701.9,1572c-84.8,189.1-195.3,297-249.6,286.5c-61.9-11.9-44-122.9-14.9-230.1c0.5-0.8,0.8-1.2,0.8-1.2
			c-4.7,31.1-45.1,172.7,40.5,182.1c85.6,9.3,222.5-241.2,222.5-241.2S1701.4,1569.4,1701.9,1572z"/>
	</g>
</g>
</svg>
